<?xml version="1.0" encoding="UTF-8" standalone="no"?>
<!DOCTYPE svg PUBLIC "-//W3C//DTD SVG 1.1//EN"
 "http://www.w3.org/Graphics/SVG/1.1/DTD/svg11.dtd">
<!-- Generated by graphviz version 2.40.1 (20161225.0304)
 -->
<!-- Title: dependencies Pages: 1 -->
<svg width="545pt" height="284pt"
 viewBox="0.00 0.00 545.00 284.00" xmlns="http://www.w3.org/2000/svg" xmlns:xlink="http://www.w3.org/1999/xlink">
<g id="graph0" class="graph" transform="scale(1 1) rotate(0) translate(4 280)">
<title>dependencies</title>
<polygon fill="#ffffff" stroke="transparent" points="-4,4 -4,-280 541,-280 541,4 -4,4"/>
<text text-anchor="start" x="247.5091" y="-42.4" font-family="sans-serif" font-weight="bold" font-size="14.00" fill="#000000">Legend</text>
<polygon fill="#ffffb3" stroke="transparent" points="34.5,-10 34.5,-30 54.5,-30 54.5,-10 34.5,-10"/>
<text text-anchor="start" x="58.129" y="-15.4" font-family="sans-serif" font-size="14.00" fill="#000000"> &#160;Declarations</text>
<polygon fill="#8dd3c7" stroke="transparent" points="147.5,-10 147.5,-30 167.5,-30 167.5,-10 147.5,-10"/>
<text text-anchor="start" x="171.2251" y="-15.4" font-family="sans-serif" font-size="14.00" fill="#000000"> &#160;Module</text>
<polygon fill="#80b1d3" stroke="transparent" points="233.5,-10 233.5,-30 253.5,-30 253.5,-10 233.5,-10"/>
<text text-anchor="start" x="257.2812" y="-15.4" font-family="sans-serif" font-size="14.00" fill="#000000"> &#160;Bootstrap</text>
<polygon fill="#fdb462" stroke="transparent" points="330.5,-10 330.5,-30 350.5,-30 350.5,-10 330.5,-10"/>
<text text-anchor="start" x="354.1732" y="-15.4" font-family="sans-serif" font-size="14.00" fill="#000000"> &#160;Providers</text>
<polygon fill="#fb8072" stroke="transparent" points="426.5,-10 426.5,-30 446.5,-30 446.5,-10 426.5,-10"/>
<text text-anchor="start" x="450.2258" y="-15.4" font-family="sans-serif" font-size="14.00" fill="#000000"> &#160;Exports</text>
<g id="clust1" class="cluster">
<title>cluster_SharedModule</title>
<polygon fill="none" stroke="#000000" stroke-dasharray="1,5" points="8,-70 8,-268 529,-268 529,-70 8,-70"/>
</g>
<g id="clust2" class="cluster">
<title>cluster_SharedModule_declarations</title>
<polygon fill="none" stroke="#000000" points="157,-78 157,-130 519,-130 519,-78 157,-78"/>
</g>
<g id="clust6" class="cluster">
<title>cluster_SharedModule_imports</title>
<polygon fill="none" stroke="#000000" points="21,-78 21,-130 149,-130 149,-78 21,-78"/>
</g>
<g id="clust7" class="cluster">
<title>cluster_SharedModule_exports</title>
<polygon fill="none" stroke="#000000" points="16,-208 16,-260 521,-260 521,-208 16,-208"/>
</g>
<!-- DatexPipe -->
<g id="node1" class="node">
<title>DatexPipe</title>
<polygon fill="#ffffb3" stroke="#000000" points="511.3149,-122 436.6851,-122 436.6851,-86 511.3149,-86 511.3149,-122"/>
<text text-anchor="middle" x="474" y="-99.8" font-family="Times,serif" font-size="14.00" fill="#000000">DatexPipe</text>
</g>
<!-- SharedModule -->
<g id="node4" class="node">
<title>SharedModule</title>
<polygon fill="#8dd3c7" stroke="#000000" points="280.4231,-187 277.4231,-191 256.4231,-191 253.4231,-187 181.5769,-187 181.5769,-151 280.4231,-151 280.4231,-187"/>
<text text-anchor="middle" x="231" y="-164.8" font-family="Times,serif" font-size="14.00" fill="#000000">SharedModule</text>
</g>
<!-- DatexPipe&#45;&gt;SharedModule -->
<g id="edge1" class="edge">
<title>DatexPipe&#45;&gt;SharedModule</title>
<path fill="none" stroke="#000000" d="M474,-122.2667C474,-140.5552 474,-166 474,-166 474,-166 290.4676,-166 290.4676,-166"/>
<polygon fill="#000000" stroke="#000000" points="290.4676,-162.5001 280.4676,-166 290.4675,-169.5001 290.4676,-162.5001"/>
</g>
<!-- TreeComponent -->
<g id="node2" class="node">
<title>TreeComponent</title>
<polygon fill="#ffffb3" stroke="#000000" points="418.4748,-122 311.5252,-122 311.5252,-86 418.4748,-86 418.4748,-122"/>
<text text-anchor="middle" x="365" y="-99.8" font-family="Times,serif" font-size="14.00" fill="#000000">TreeComponent</text>
</g>
<!-- TreeComponent&#45;&gt;SharedModule -->
<g id="edge2" class="edge">
<title>TreeComponent&#45;&gt;SharedModule</title>
<path fill="none" stroke="#000000" d="M345.7099,-122.0091C345.7099,-138.0494 345.7099,-159 345.7099,-159 345.7099,-159 290.313,-159 290.313,-159"/>
<polygon fill="#000000" stroke="#000000" points="290.3131,-155.5001 280.313,-159 290.313,-162.5001 290.3131,-155.5001"/>
</g>
<!-- MemberComponent -->
<g id="node3" class="node">
<title>MemberComponent</title>
<polygon fill="#ffffb3" stroke="#000000" points="293.2576,-122 164.7424,-122 164.7424,-86 293.2576,-86 293.2576,-122"/>
<text text-anchor="middle" x="229" y="-99.8" font-family="Times,serif" font-size="14.00" fill="#000000">MemberComponent</text>
</g>
<!-- MemberComponent&#45;&gt;SharedModule -->
<g id="edge3" class="edge">
<title>MemberComponent&#45;&gt;SharedModule</title>
<path fill="none" stroke="#000000" d="M231,-122.1061C231,-122.1061 231,-140.991 231,-140.991"/>
<polygon fill="#000000" stroke="#000000" points="227.5001,-140.9909 231,-150.991 234.5001,-140.991 227.5001,-140.9909"/>
</g>
<!-- CommonModule  -->
<g id="node6" class="node">
<title>CommonModule </title>
<polygon fill="#fb8072" stroke="#000000" points="512.6677,-252 397.3323,-252 397.3323,-216 512.6677,-216 512.6677,-252"/>
<text text-anchor="middle" x="455" y="-229.8" font-family="Times,serif" font-size="14.00" fill="#000000">CommonModule </text>
</g>
<!-- SharedModule&#45;&gt;CommonModule  -->
<g id="edge5" class="edge">
<title>SharedModule&#45;&gt;CommonModule </title>
<path fill="none" stroke="#000000" stroke-dasharray="5,2" d="M280.2909,-173C332.6495,-173 407.9518,-173 407.9518,-173 407.9518,-173 407.9518,-205.698 407.9518,-205.698"/>
<polygon fill="#000000" stroke="#000000" points="404.4519,-205.698 407.9518,-215.698 411.4519,-205.698 404.4519,-205.698"/>
</g>
<!-- DatexPipe  -->
<g id="node7" class="node">
<title>DatexPipe </title>
<polygon fill="#fb8072" stroke="#000000" points="379.8144,-252 302.1856,-252 302.1856,-216 379.8144,-216 379.8144,-252"/>
<text text-anchor="middle" x="341" y="-229.8" font-family="Times,serif" font-size="14.00" fill="#000000">DatexPipe </text>
</g>
<!-- SharedModule&#45;&gt;DatexPipe  -->
<g id="edge6" class="edge">
<title>SharedModule&#45;&gt;DatexPipe </title>
<path fill="none" stroke="#000000" stroke-dasharray="5,2" d="M280.2906,-180C294.7689,-180 306.8028,-180 306.8028,-180 306.8028,-180 306.8028,-205.7181 306.8028,-205.7181"/>
<polygon fill="#000000" stroke="#000000" points="303.3028,-205.718 306.8028,-215.7181 310.3028,-205.7181 303.3028,-205.718"/>
</g>
<!-- TreeComponent  -->
<g id="node8" class="node">
<title>TreeComponent </title>
<polygon fill="#fb8072" stroke="#000000" points="284.4758,-252 173.5242,-252 173.5242,-216 284.4758,-216 284.4758,-252"/>
<text text-anchor="middle" x="229" y="-229.8" font-family="Times,serif" font-size="14.00" fill="#000000">TreeComponent </text>
</g>
<!-- SharedModule&#45;&gt;TreeComponent  -->
<g id="edge7" class="edge">
<title>SharedModule&#45;&gt;TreeComponent </title>
<path fill="none" stroke="#000000" stroke-dasharray="5,2" d="M231,-187.1061C231,-187.1061 231,-205.991 231,-205.991"/>
<polygon fill="#000000" stroke="#000000" points="227.5001,-205.9909 231,-215.991 234.5001,-205.991 227.5001,-205.9909"/>
</g>
<!-- MemberComponent  -->
<g id="node9" class="node">
<title>MemberComponent </title>
<polygon fill="#fb8072" stroke="#000000" points="156.2577,-252 23.7423,-252 23.7423,-216 156.2577,-216 156.2577,-252"/>
<text text-anchor="middle" x="90" y="-229.8" font-family="Times,serif" font-size="14.00" fill="#000000">MemberComponent </text>
</g>
<!-- SharedModule&#45;&gt;MemberComponent  -->
<g id="edge8" class="edge">
<title>SharedModule&#45;&gt;MemberComponent </title>
<path fill="none" stroke="#000000" stroke-dasharray="5,2" d="M181.5693,-175C163.9951,-175 148.4813,-175 148.4813,-175 148.4813,-175 148.4813,-205.9775 148.4813,-205.9775"/>
<polygon fill="#000000" stroke="#000000" points="144.9813,-205.9774 148.4813,-215.9775 151.9813,-205.9775 144.9813,-205.9774"/>
</g>
<!-- CommonModule -->
<g id="node5" class="node">
<title>CommonModule</title>
<polygon fill="#8dd3c7" stroke="#000000" points="140.6681,-122 137.6681,-126 116.6681,-126 113.6681,-122 29.3319,-122 29.3319,-86 140.6681,-86 140.6681,-122"/>
<text text-anchor="middle" x="85" y="-99.8" font-family="Times,serif" font-size="14.00" fill="#000000">CommonModule</text>
</g>
<!-- CommonModule&#45;&gt;SharedModule -->
<g id="edge4" class="edge">
<title>CommonModule&#45;&gt;SharedModule</title>
<path fill="none" stroke="#000000" d="M85,-122.0225C85,-139.3734 85,-163 85,-163 85,-163 171.5711,-163 171.5711,-163"/>
<polygon fill="#000000" stroke="#000000" points="171.5711,-166.5001 181.5711,-163 171.571,-159.5001 171.5711,-166.5001"/>
</g>
</g>
</svg>
