<?xml version="1.0" encoding="UTF-8" standalone="no"?>
<!DOCTYPE svg PUBLIC "-//W3C//DTD SVG 1.1//EN"
 "http://www.w3.org/Graphics/SVG/1.1/DTD/svg11.dtd">
<!-- Generated by graphviz version 2.40.1 (20161225.0304)
 -->
<!-- Title: dependencies Pages: 1 -->
<svg width="625pt" height="284pt"
 viewBox="0.00 0.00 625.00 284.00" xmlns="http://www.w3.org/2000/svg" xmlns:xlink="http://www.w3.org/1999/xlink">
<g id="graph0" class="graph" transform="scale(1 1) rotate(0) translate(4 280)">
<title>dependencies</title>
<polygon fill="#ffffff" stroke="transparent" points="-4,4 -4,-280 621,-280 621,4 -4,4"/>
<text text-anchor="start" x="287.5091" y="-42.4" font-family="sans-serif" font-weight="bold" font-size="14.00" fill="#000000">Legend</text>
<polygon fill="#ffffb3" stroke="transparent" points="74.5,-10 74.5,-30 94.5,-30 94.5,-10 74.5,-10"/>
<text text-anchor="start" x="98.129" y="-15.4" font-family="sans-serif" font-size="14.00" fill="#000000"> &#160;Declarations</text>
<polygon fill="#8dd3c7" stroke="transparent" points="187.5,-10 187.5,-30 207.5,-30 207.5,-10 187.5,-10"/>
<text text-anchor="start" x="211.2251" y="-15.4" font-family="sans-serif" font-size="14.00" fill="#000000"> &#160;Module</text>
<polygon fill="#80b1d3" stroke="transparent" points="273.5,-10 273.5,-30 293.5,-30 293.5,-10 273.5,-10"/>
<text text-anchor="start" x="297.2812" y="-15.4" font-family="sans-serif" font-size="14.00" fill="#000000"> &#160;Bootstrap</text>
<polygon fill="#fdb462" stroke="transparent" points="370.5,-10 370.5,-30 390.5,-30 390.5,-10 370.5,-10"/>
<text text-anchor="start" x="394.1732" y="-15.4" font-family="sans-serif" font-size="14.00" fill="#000000"> &#160;Providers</text>
<polygon fill="#fb8072" stroke="transparent" points="466.5,-10 466.5,-30 486.5,-30 486.5,-10 466.5,-10"/>
<text text-anchor="start" x="490.2258" y="-15.4" font-family="sans-serif" font-size="14.00" fill="#000000"> &#160;Exports</text>
<g id="clust1" class="cluster">
<title>cluster_HomeSiteModule</title>
<polygon fill="none" stroke="#000000" stroke-dasharray="1,5" points="8,-70 8,-268 609,-268 609,-70 8,-70"/>
</g>
<g id="clust2" class="cluster">
<title>cluster_HomeSiteModule_declarations</title>
<polygon fill="none" stroke="#000000" points="447,-78 447,-130 601,-130 601,-78 447,-78"/>
</g>
<g id="clust4" class="cluster">
<title>cluster_HomeSiteModule_imports</title>
<polygon fill="none" stroke="#000000" points="16,-78 16,-130 439,-130 439,-78 16,-78"/>
</g>
<g id="clust5" class="cluster">
<title>cluster_HomeSiteModule_exports</title>
<polygon fill="none" stroke="#000000" points="235,-208 235,-260 391,-260 391,-208 235,-208"/>
</g>
<!-- HomeSiteComponent -->
<g id="node1" class="node">
<title>HomeSiteComponent</title>
<polygon fill="#ffffb3" stroke="#000000" points="592.823,-122 455.177,-122 455.177,-86 592.823,-86 592.823,-122"/>
<text text-anchor="middle" x="524" y="-99.8" font-family="Times,serif" font-size="14.00" fill="#000000">HomeSiteComponent</text>
</g>
<!-- HomeSiteModule -->
<g id="node2" class="node">
<title>HomeSiteModule</title>
<polygon fill="#8dd3c7" stroke="#000000" points="370.5409,-187 367.5409,-191 346.5409,-191 343.5409,-187 255.4591,-187 255.4591,-151 370.5409,-151 370.5409,-187"/>
<text text-anchor="middle" x="313" y="-164.8" font-family="Times,serif" font-size="14.00" fill="#000000">HomeSiteModule</text>
</g>
<!-- HomeSiteComponent&#45;&gt;HomeSiteModule -->
<g id="edge1" class="edge">
<title>HomeSiteComponent&#45;&gt;HomeSiteModule</title>
<path fill="none" stroke="#000000" d="M524,-122.1061C524,-141.3391 524,-169 524,-169 524,-169 380.6567,-169 380.6567,-169"/>
<polygon fill="#000000" stroke="#000000" points="380.6567,-165.5001 370.6567,-169 380.6566,-172.5001 380.6567,-165.5001"/>
</g>
<!-- HomeSiteComponent  -->
<g id="node6" class="node">
<title>HomeSiteComponent </title>
<polygon fill="#fb8072" stroke="#000000" points="383.3227,-252 242.6773,-252 242.6773,-216 383.3227,-216 383.3227,-252"/>
<text text-anchor="middle" x="313" y="-229.8" font-family="Times,serif" font-size="14.00" fill="#000000">HomeSiteComponent </text>
</g>
<!-- HomeSiteModule&#45;&gt;HomeSiteComponent  -->
<g id="edge5" class="edge">
<title>HomeSiteModule&#45;&gt;HomeSiteComponent </title>
<path fill="none" stroke="#000000" stroke-dasharray="5,2" d="M313,-187.1061C313,-187.1061 313,-205.991 313,-205.991"/>
<polygon fill="#000000" stroke="#000000" points="309.5001,-205.9909 313,-215.991 316.5001,-205.991 309.5001,-205.9909"/>
</g>
<!-- CommonModule -->
<g id="node3" class="node">
<title>CommonModule</title>
<polygon fill="#8dd3c7" stroke="#000000" points="430.6681,-122 427.6681,-126 406.6681,-126 403.6681,-122 319.3319,-122 319.3319,-86 430.6681,-86 430.6681,-122"/>
<text text-anchor="middle" x="375" y="-99.8" font-family="Times,serif" font-size="14.00" fill="#000000">CommonModule</text>
</g>
<!-- CommonModule&#45;&gt;HomeSiteModule -->
<g id="edge2" class="edge">
<title>CommonModule&#45;&gt;HomeSiteModule</title>
<path fill="none" stroke="#000000" d="M344.9681,-122.1061C344.9681,-122.1061 344.9681,-140.991 344.9681,-140.991"/>
<polygon fill="#000000" stroke="#000000" points="341.4682,-140.9909 344.9681,-150.991 348.4682,-140.991 341.4682,-140.9909"/>
</g>
<!-- SharedModule -->
<g id="node4" class="node">
<title>SharedModule</title>
<polygon fill="#8dd3c7" stroke="#000000" points="301.4231,-122 298.4231,-126 277.4231,-126 274.4231,-122 202.5769,-122 202.5769,-86 301.4231,-86 301.4231,-122"/>
<text text-anchor="middle" x="252" y="-99.8" font-family="Times,serif" font-size="14.00" fill="#000000">SharedModule</text>
</g>
<!-- SharedModule&#45;&gt;HomeSiteModule -->
<g id="edge3" class="edge">
<title>SharedModule&#45;&gt;HomeSiteModule</title>
<path fill="none" stroke="#000000" d="M278.2206,-122.1061C278.2206,-122.1061 278.2206,-140.991 278.2206,-140.991"/>
<polygon fill="#000000" stroke="#000000" points="274.7206,-140.9909 278.2206,-150.991 281.7206,-140.991 274.7206,-140.9909"/>
</g>
<!-- HomeSiteRoutingModule -->
<g id="node5" class="node">
<title>HomeSiteRoutingModule</title>
<polygon fill="#8dd3c7" stroke="#000000" points="184.1582,-122 181.1582,-126 160.1582,-126 157.1582,-122 23.8418,-122 23.8418,-86 184.1582,-86 184.1582,-122"/>
<text text-anchor="middle" x="104" y="-99.8" font-family="Times,serif" font-size="14.00" fill="#000000">HomeSiteRoutingModule</text>
</g>
<!-- HomeSiteRoutingModule&#45;&gt;HomeSiteModule -->
<g id="edge4" class="edge">
<title>HomeSiteRoutingModule&#45;&gt;HomeSiteModule</title>
<path fill="none" stroke="#000000" d="M104,-122.1061C104,-141.3391 104,-169 104,-169 104,-169 245.3366,-169 245.3366,-169"/>
<polygon fill="#000000" stroke="#000000" points="245.3366,-172.5001 255.3366,-169 245.3365,-165.5001 245.3366,-172.5001"/>
</g>
</g>
</svg>
