<?xml version="1.0" encoding="UTF-8" standalone="no"?>
<!DOCTYPE svg PUBLIC "-//W3C//DTD SVG 1.1//EN"
 "http://www.w3.org/Graphics/SVG/1.1/DTD/svg11.dtd">
<!-- Generated by graphviz version 2.40.1 (20161225.0304)
 -->
<!-- Title: dependencies Pages: 1 -->
<svg width="1780pt" height="284pt"
 viewBox="0.00 0.00 1780.00 284.00" xmlns="http://www.w3.org/2000/svg" xmlns:xlink="http://www.w3.org/1999/xlink">
<g id="graph0" class="graph" transform="scale(1 1) rotate(0) translate(4 280)">
<title>dependencies</title>
<polygon fill="#ffffff" stroke="transparent" points="-4,4 -4,-280 1776,-280 1776,4 -4,4"/>
<text text-anchor="start" x="865.0091" y="-42.4" font-family="sans-serif" font-weight="bold" font-size="14.00" fill="#000000">Legend</text>
<polygon fill="#ffffb3" stroke="transparent" points="652,-10 652,-30 672,-30 672,-10 652,-10"/>
<text text-anchor="start" x="675.629" y="-15.4" font-family="sans-serif" font-size="14.00" fill="#000000"> &#160;Declarations</text>
<polygon fill="#8dd3c7" stroke="transparent" points="765,-10 765,-30 785,-30 785,-10 765,-10"/>
<text text-anchor="start" x="788.7251" y="-15.4" font-family="sans-serif" font-size="14.00" fill="#000000"> &#160;Module</text>
<polygon fill="#80b1d3" stroke="transparent" points="851,-10 851,-30 871,-30 871,-10 851,-10"/>
<text text-anchor="start" x="874.7812" y="-15.4" font-family="sans-serif" font-size="14.00" fill="#000000"> &#160;Bootstrap</text>
<polygon fill="#fdb462" stroke="transparent" points="948,-10 948,-30 968,-30 968,-10 948,-10"/>
<text text-anchor="start" x="971.6732" y="-15.4" font-family="sans-serif" font-size="14.00" fill="#000000"> &#160;Providers</text>
<polygon fill="#fb8072" stroke="transparent" points="1044,-10 1044,-30 1064,-30 1064,-10 1044,-10"/>
<text text-anchor="start" x="1067.7258" y="-15.4" font-family="sans-serif" font-size="14.00" fill="#000000"> &#160;Exports</text>
<g id="clust1" class="cluster">
<title>cluster_AppModule</title>
<polygon fill="none" stroke="#000000" stroke-dasharray="1,5" points="8,-70 8,-268 1764,-268 1764,-70 8,-70"/>
</g>
<g id="clust2" class="cluster">
<title>cluster_AppModule_declarations</title>
<polygon fill="none" stroke="#000000" points="1464,-78 1464,-130 1756,-130 1756,-78 1464,-78"/>
</g>
<g id="clust5" class="cluster">
<title>cluster_AppModule_imports</title>
<polygon fill="none" stroke="#000000" points="566,-78 566,-130 1456,-130 1456,-78 566,-78"/>
</g>
<g id="clust7" class="cluster">
<title>cluster_AppModule_bootstrap</title>
<polygon fill="none" stroke="#000000" points="1053,-208 1053,-260 1177,-260 1177,-208 1053,-208"/>
</g>
<g id="clust8" class="cluster">
<title>cluster_AppModule_providers</title>
<polygon fill="none" stroke="#000000" points="16,-78 16,-130 558,-130 558,-78 16,-78"/>
</g>
<!-- AppComponent -->
<g id="node1" class="node">
<title>AppComponent</title>
<polygon fill="#ffffb3" stroke="#000000" points="1747.9399,-122 1642.0601,-122 1642.0601,-86 1747.9399,-86 1747.9399,-122"/>
<text text-anchor="middle" x="1695" y="-99.8" font-family="Times,serif" font-size="14.00" fill="#000000">AppComponent</text>
</g>
<!-- AppModule -->
<g id="node3" class="node">
<title>AppModule</title>
<polygon fill="#8dd3c7" stroke="#000000" points="1156.6571,-187 1153.6571,-191 1132.6571,-191 1129.6571,-187 1073.3429,-187 1073.3429,-151 1156.6571,-151 1156.6571,-187"/>
<text text-anchor="middle" x="1115" y="-164.8" font-family="Times,serif" font-size="14.00" fill="#000000">AppModule</text>
</g>
<!-- AppComponent&#45;&gt;AppModule -->
<g id="edge1" class="edge">
<title>AppComponent&#45;&gt;AppModule</title>
<path fill="none" stroke="#000000" d="M1695,-122.0109C1695,-144.4852 1695,-180 1695,-180 1695,-180 1166.7122,-180 1166.7122,-180"/>
<polygon fill="#000000" stroke="#000000" points="1166.7122,-176.5001 1156.7122,-180 1166.7121,-183.5001 1166.7122,-176.5001"/>
</g>
<!-- ActionMenuComponent -->
<g id="node2" class="node">
<title>ActionMenuComponent</title>
<polygon fill="#ffffb3" stroke="#000000" points="1624.094,-122 1471.906,-122 1471.906,-86 1624.094,-86 1624.094,-122"/>
<text text-anchor="middle" x="1548" y="-99.8" font-family="Times,serif" font-size="14.00" fill="#000000">ActionMenuComponent</text>
</g>
<!-- ActionMenuComponent&#45;&gt;AppModule -->
<g id="edge2" class="edge">
<title>ActionMenuComponent&#45;&gt;AppModule</title>
<path fill="none" stroke="#000000" d="M1548,-122.1289C1548,-142.5724 1548,-173 1548,-173 1548,-173 1166.9113,-173 1166.9113,-173"/>
<polygon fill="#000000" stroke="#000000" points="1166.9113,-169.5001 1156.9113,-173 1166.9113,-176.5001 1166.9113,-169.5001"/>
</g>
<!-- AppComponent  -->
<g id="node11" class="node">
<title>AppComponent </title>
<polygon fill="#80b1d3" stroke="#000000" points="1169.439,-252 1060.561,-252 1060.561,-216 1169.439,-216 1169.439,-252"/>
<text text-anchor="middle" x="1115" y="-229.8" font-family="Times,serif" font-size="14.00" fill="#000000">AppComponent </text>
</g>
<!-- AppModule&#45;&gt;AppComponent  -->
<g id="edge10" class="edge">
<title>AppModule&#45;&gt;AppComponent </title>
<path fill="none" stroke="#000000" stroke-dasharray="1,5" d="M1115,-187.1061C1115,-187.1061 1115,-205.991 1115,-205.991"/>
<polygon fill="#000000" stroke="#000000" points="1111.5001,-205.9909 1115,-215.991 1118.5001,-205.991 1111.5001,-205.9909"/>
</g>
<!-- BrowserModule -->
<g id="node4" class="node">
<title>BrowserModule</title>
<polygon fill="#8dd3c7" stroke="#000000" points="1448.4734,-122 1445.4734,-126 1424.4734,-126 1421.4734,-122 1341.5266,-122 1341.5266,-86 1448.4734,-86 1448.4734,-122"/>
<text text-anchor="middle" x="1395" y="-99.8" font-family="Times,serif" font-size="14.00" fill="#000000">BrowserModule</text>
</g>
<!-- BrowserModule&#45;&gt;AppModule -->
<g id="edge3" class="edge">
<title>BrowserModule&#45;&gt;AppModule</title>
<path fill="none" stroke="#000000" d="M1395,-122.2667C1395,-140.5552 1395,-166 1395,-166 1395,-166 1166.9188,-166 1166.9188,-166"/>
<polygon fill="#000000" stroke="#000000" points="1166.9189,-162.5001 1156.9188,-166 1166.9188,-169.5001 1166.9189,-162.5001"/>
</g>
<!-- HttpModule -->
<g id="node5" class="node">
<title>HttpModule</title>
<polygon fill="#8dd3c7" stroke="#000000" points="1323.4387,-122 1320.4387,-126 1299.4387,-126 1296.4387,-122 1238.5613,-122 1238.5613,-86 1323.4387,-86 1323.4387,-122"/>
<text text-anchor="middle" x="1281" y="-99.8" font-family="Times,serif" font-size="14.00" fill="#000000">HttpModule</text>
</g>
<!-- HttpModule&#45;&gt;AppModule -->
<g id="edge4" class="edge">
<title>HttpModule&#45;&gt;AppModule</title>
<path fill="none" stroke="#000000" d="M1281,-122.0091C1281,-138.0494 1281,-159 1281,-159 1281,-159 1166.8888,-159 1166.8888,-159"/>
<polygon fill="#000000" stroke="#000000" points="1166.8888,-155.5001 1156.8888,-159 1166.8888,-162.5001 1166.8888,-155.5001"/>
</g>
<!-- JsonpModule -->
<g id="node6" class="node">
<title>JsonpModule</title>
<polygon fill="#8dd3c7" stroke="#000000" points="1220.9401,-122 1217.9401,-126 1196.9401,-126 1193.9401,-122 1129.0599,-122 1129.0599,-86 1220.9401,-86 1220.9401,-122"/>
<text text-anchor="middle" x="1175" y="-99.8" font-family="Times,serif" font-size="14.00" fill="#000000">JsonpModule</text>
</g>
<!-- JsonpModule&#45;&gt;AppModule -->
<g id="edge5" class="edge">
<title>JsonpModule&#45;&gt;AppModule</title>
<path fill="none" stroke="#000000" d="M1143.0543,-122.1061C1143.0543,-122.1061 1143.0543,-140.991 1143.0543,-140.991"/>
<polygon fill="#000000" stroke="#000000" points="1139.5544,-140.9909 1143.0543,-150.991 1146.5544,-140.991 1139.5544,-140.9909"/>
</g>
<!-- CommonModule -->
<g id="node7" class="node">
<title>CommonModule</title>
<polygon fill="#8dd3c7" stroke="#000000" points="1110.6681,-122 1107.6681,-126 1086.6681,-126 1083.6681,-122 999.3319,-122 999.3319,-86 1110.6681,-86 1110.6681,-122"/>
<text text-anchor="middle" x="1055" y="-99.8" font-family="Times,serif" font-size="14.00" fill="#000000">CommonModule</text>
</g>
<!-- CommonModule&#45;&gt;AppModule -->
<g id="edge6" class="edge">
<title>CommonModule&#45;&gt;AppModule</title>
<path fill="none" stroke="#000000" d="M1092.0028,-122.1061C1092.0028,-122.1061 1092.0028,-140.991 1092.0028,-140.991"/>
<polygon fill="#000000" stroke="#000000" points="1088.5029,-140.9909 1092.0028,-150.991 1095.5029,-140.991 1088.5029,-140.9909"/>
</g>
<!-- AppRoutingModule -->
<g id="node8" class="node">
<title>AppRoutingModule</title>
<polygon fill="#8dd3c7" stroke="#000000" points="981.2744,-122 978.2744,-126 957.2744,-126 954.2744,-122 852.7256,-122 852.7256,-86 981.2744,-86 981.2744,-122"/>
<text text-anchor="middle" x="917" y="-99.8" font-family="Times,serif" font-size="14.00" fill="#000000">AppRoutingModule</text>
</g>
<!-- AppRoutingModule&#45;&gt;AppModule -->
<g id="edge7" class="edge">
<title>AppRoutingModule&#45;&gt;AppModule</title>
<path fill="none" stroke="#000000" d="M917,-122.0091C917,-138.0494 917,-159 917,-159 917,-159 1063.0093,-159 1063.0093,-159"/>
<polygon fill="#000000" stroke="#000000" points="1063.0093,-162.5001 1073.0093,-159 1063.0093,-155.5001 1063.0093,-162.5001"/>
</g>
<!-- SharedModule -->
<g id="node9" class="node">
<title>SharedModule</title>
<polygon fill="#8dd3c7" stroke="#000000" points="834.4231,-122 831.4231,-126 810.4231,-126 807.4231,-122 735.5769,-122 735.5769,-86 834.4231,-86 834.4231,-122"/>
<text text-anchor="middle" x="785" y="-99.8" font-family="Times,serif" font-size="14.00" fill="#000000">SharedModule</text>
</g>
<!-- SharedModule&#45;&gt;AppModule -->
<g id="edge8" class="edge">
<title>SharedModule&#45;&gt;AppModule</title>
<path fill="none" stroke="#000000" d="M785,-122.2667C785,-140.5552 785,-166 785,-166 785,-166 1063.2053,-166 1063.2053,-166"/>
<polygon fill="#000000" stroke="#000000" points="1063.2053,-169.5001 1073.2053,-166 1063.2052,-162.5001 1063.2053,-169.5001"/>
</g>
<!-- CoreModule.forRoot() -->
<g id="node10" class="node">
<title>CoreModule.forRoot()</title>
<polygon fill="#8dd3c7" stroke="#000000" points="717.6313,-122 714.6313,-126 693.6313,-126 690.6313,-122 574.3687,-122 574.3687,-86 717.6313,-86 717.6313,-122"/>
<text text-anchor="middle" x="646" y="-99.8" font-family="Times,serif" font-size="14.00" fill="#000000">CoreModule.forRoot()</text>
</g>
<!-- CoreModule.forRoot()&#45;&gt;AppModule -->
<g id="edge9" class="edge">
<title>CoreModule.forRoot()&#45;&gt;AppModule</title>
<path fill="none" stroke="#000000" d="M646,-122.1289C646,-142.5724 646,-173 646,-173 646,-173 1062.9666,-173 1062.9666,-173"/>
<polygon fill="#000000" stroke="#000000" points="1062.9667,-176.5001 1072.9666,-173 1062.9666,-169.5001 1062.9667,-176.5001"/>
</g>
<!-- { provide: ErrorHandler, useClass: UncaughtExceptionHandler } -->
<g id="node12" class="node">
<title>{ provide: ErrorHandler, useClass: UncaughtExceptionHandler }</title>
<ellipse fill="#fdb462" stroke="#000000" cx="287" cy="-104" rx="262.9376" ry="18"/>
<text text-anchor="middle" x="287" y="-99.8" font-family="Times,serif" font-size="14.00" fill="#000000">{ provide: ErrorHandler, useClass: UncaughtExceptionHandler }</text>
</g>
<!-- { provide: ErrorHandler, useClass: UncaughtExceptionHandler }&#45;&gt;AppModule -->
<g id="edge11" class="edge">
<title>{ provide: ErrorHandler, useClass: UncaughtExceptionHandler }&#45;&gt;AppModule</title>
<path fill="none" stroke="#000000" d="M287,-122.0109C287,-144.4852 287,-180 287,-180 287,-180 1063.0869,-180 1063.0869,-180"/>
<polygon fill="#000000" stroke="#000000" points="1063.0869,-183.5001 1073.0869,-180 1063.0869,-176.5001 1063.0869,-183.5001"/>
</g>
</g>
</svg>
