<?xml version="1.0" encoding="UTF-8" standalone="no"?>
<!DOCTYPE svg PUBLIC "-//W3C//DTD SVG 1.1//EN"
 "http://www.w3.org/Graphics/SVG/1.1/DTD/svg11.dtd">
<!-- Generated by graphviz version 2.40.1 (20161225.0304)
 -->
<!-- Title: dependencies Pages: 1 -->
<svg width="504pt" height="284pt"
 viewBox="0.00 0.00 504.00 284.00" xmlns="http://www.w3.org/2000/svg" xmlns:xlink="http://www.w3.org/1999/xlink">
<g id="graph0" class="graph" transform="scale(1 1) rotate(0) translate(4 280)">
<title>dependencies</title>
<polygon fill="#ffffff" stroke="transparent" points="-4,4 -4,-280 500,-280 500,4 -4,4"/>
<text text-anchor="start" x="227.0091" y="-42.4" font-family="sans-serif" font-weight="bold" font-size="14.00" fill="#000000">Legend</text>
<polygon fill="#ffffb3" stroke="transparent" points="14,-10 14,-30 34,-30 34,-10 14,-10"/>
<text text-anchor="start" x="37.629" y="-15.4" font-family="sans-serif" font-size="14.00" fill="#000000"> &#160;Declarations</text>
<polygon fill="#8dd3c7" stroke="transparent" points="127,-10 127,-30 147,-30 147,-10 127,-10"/>
<text text-anchor="start" x="150.7251" y="-15.4" font-family="sans-serif" font-size="14.00" fill="#000000"> &#160;Module</text>
<polygon fill="#80b1d3" stroke="transparent" points="213,-10 213,-30 233,-30 233,-10 213,-10"/>
<text text-anchor="start" x="236.7812" y="-15.4" font-family="sans-serif" font-size="14.00" fill="#000000"> &#160;Bootstrap</text>
<polygon fill="#fdb462" stroke="transparent" points="310,-10 310,-30 330,-30 330,-10 310,-10"/>
<text text-anchor="start" x="333.6732" y="-15.4" font-family="sans-serif" font-size="14.00" fill="#000000"> &#160;Providers</text>
<polygon fill="#fb8072" stroke="transparent" points="406,-10 406,-30 426,-30 426,-10 406,-10"/>
<text text-anchor="start" x="429.7258" y="-15.4" font-family="sans-serif" font-size="14.00" fill="#000000"> &#160;Exports</text>
<g id="clust1" class="cluster">
<title>cluster_Area1SiteModule</title>
<polygon fill="none" stroke="#000000" stroke-dasharray="1,5" points="12.5,-70 12.5,-268 483.5,-268 483.5,-70 12.5,-70"/>
</g>
<g id="clust2" class="cluster">
<title>cluster_Area1SiteModule_declarations</title>
<polygon fill="none" stroke="#000000" points="321.5,-78 321.5,-130 475.5,-130 475.5,-78 321.5,-78"/>
</g>
<g id="clust4" class="cluster">
<title>cluster_Area1SiteModule_imports</title>
<polygon fill="none" stroke="#000000" points="20.5,-78 20.5,-130 313.5,-130 313.5,-78 20.5,-78"/>
</g>
<g id="clust5" class="cluster">
<title>cluster_Area1SiteModule_exports</title>
<polygon fill="none" stroke="#000000" points="178.5,-208 178.5,-260 334.5,-260 334.5,-208 178.5,-208"/>
</g>
<!-- Area1SiteComponent -->
<g id="node1" class="node">
<title>Area1SiteComponent</title>
<polygon fill="#ffffb3" stroke="#000000" points="467.3075,-122 329.6925,-122 329.6925,-86 467.3075,-86 467.3075,-122"/>
<text text-anchor="middle" x="398.5" y="-99.8" font-family="Times,serif" font-size="14.00" fill="#000000">Area1SiteComponent</text>
</g>
<!-- Area1SiteModule -->
<g id="node2" class="node">
<title>Area1SiteModule</title>
<polygon fill="#8dd3c7" stroke="#000000" points="314.0256,-187 311.0256,-191 290.0256,-191 287.0256,-187 198.9744,-187 198.9744,-151 314.0256,-151 314.0256,-187"/>
<text text-anchor="middle" x="256.5" y="-164.8" font-family="Times,serif" font-size="14.00" fill="#000000">Area1SiteModule</text>
</g>
<!-- Area1SiteComponent&#45;&gt;Area1SiteModule -->
<g id="edge1" class="edge">
<title>Area1SiteComponent&#45;&gt;Area1SiteModule</title>
<path fill="none" stroke="#000000" d="M329.6307,-104C318.2038,-104 309.9867,-104 309.9867,-104 309.9867,-104 309.9867,-140.8939 309.9867,-140.8939"/>
<polygon fill="#000000" stroke="#000000" points="306.4868,-140.8938 309.9867,-150.8939 313.4868,-140.8939 306.4868,-140.8938"/>
</g>
<!-- Area1SiteComponent  -->
<g id="node5" class="node">
<title>Area1SiteComponent </title>
<polygon fill="#fb8072" stroke="#000000" points="326.8073,-252 186.1927,-252 186.1927,-216 326.8073,-216 326.8073,-252"/>
<text text-anchor="middle" x="256.5" y="-229.8" font-family="Times,serif" font-size="14.00" fill="#000000">Area1SiteComponent </text>
</g>
<!-- Area1SiteModule&#45;&gt;Area1SiteComponent  -->
<g id="edge4" class="edge">
<title>Area1SiteModule&#45;&gt;Area1SiteComponent </title>
<path fill="none" stroke="#000000" stroke-dasharray="5,2" d="M256.5,-187.1061C256.5,-187.1061 256.5,-205.991 256.5,-205.991"/>
<polygon fill="#000000" stroke="#000000" points="253.0001,-205.9909 256.5,-215.991 260.0001,-205.991 253.0001,-205.9909"/>
</g>
<!-- SharedModule -->
<g id="node3" class="node">
<title>SharedModule</title>
<polygon fill="#8dd3c7" stroke="#000000" points="305.9231,-122 302.9231,-126 281.9231,-126 278.9231,-122 207.0769,-122 207.0769,-86 305.9231,-86 305.9231,-122"/>
<text text-anchor="middle" x="256.5" y="-99.8" font-family="Times,serif" font-size="14.00" fill="#000000">SharedModule</text>
</g>
<!-- SharedModule&#45;&gt;Area1SiteModule -->
<g id="edge2" class="edge">
<title>SharedModule&#45;&gt;Area1SiteModule</title>
<path fill="none" stroke="#000000" d="M256.5,-122.1061C256.5,-122.1061 256.5,-140.991 256.5,-140.991"/>
<polygon fill="#000000" stroke="#000000" points="253.0001,-140.9909 256.5,-150.991 260.0001,-140.991 253.0001,-140.9909"/>
</g>
<!-- Area1SiteRoutingModule -->
<g id="node4" class="node">
<title>Area1SiteRoutingModule</title>
<polygon fill="#8dd3c7" stroke="#000000" points="188.6428,-122 185.6428,-126 164.6428,-126 161.6428,-122 28.3572,-122 28.3572,-86 188.6428,-86 188.6428,-122"/>
<text text-anchor="middle" x="108.5" y="-99.8" font-family="Times,serif" font-size="14.00" fill="#000000">Area1SiteRoutingModule</text>
</g>
<!-- Area1SiteRoutingModule&#45;&gt;Area1SiteModule -->
<g id="edge3" class="edge">
<title>Area1SiteRoutingModule&#45;&gt;Area1SiteModule</title>
<path fill="none" stroke="#000000" d="M188.6588,-104C197.2894,-104 203.0133,-104 203.0133,-104 203.0133,-104 203.0133,-140.8939 203.0133,-140.8939"/>
<polygon fill="#000000" stroke="#000000" points="199.5134,-140.8938 203.0133,-150.8939 206.5134,-140.8939 199.5134,-140.8938"/>
</g>
</g>
</svg>
