<?xml version="1.0" encoding="UTF-8" standalone="no"?>
<!DOCTYPE svg PUBLIC "-//W3C//DTD SVG 1.1//EN"
 "http://www.w3.org/Graphics/SVG/1.1/DTD/svg11.dtd">
<!-- Generated by graphviz version 2.40.1 (20161225.0304)
 -->
<!-- Title: dependencies Pages: 1 -->
<svg width="3730pt" height="349pt"
 viewBox="0.00 0.00 3730.00 349.00" xmlns="http://www.w3.org/2000/svg" xmlns:xlink="http://www.w3.org/1999/xlink">
<g id="graph0" class="graph" transform="scale(1 1) rotate(0) translate(4 345)">
<title>dependencies</title>
<polygon fill="#ffffff" stroke="transparent" points="-4,4 -4,-345 3726,-345 3726,4 -4,4"/>
<text text-anchor="start" x="1840.0091" y="-42.4" font-family="sans-serif" font-weight="bold" font-size="14.00" fill="#000000">Legend</text>
<polygon fill="#ffffb3" stroke="transparent" points="1627,-10 1627,-30 1647,-30 1647,-10 1627,-10"/>
<text text-anchor="start" x="1650.629" y="-15.4" font-family="sans-serif" font-size="14.00" fill="#000000"> &#160;Declarations</text>
<polygon fill="#8dd3c7" stroke="transparent" points="1740,-10 1740,-30 1760,-30 1760,-10 1740,-10"/>
<text text-anchor="start" x="1763.7251" y="-15.4" font-family="sans-serif" font-size="14.00" fill="#000000"> &#160;Module</text>
<polygon fill="#80b1d3" stroke="transparent" points="1826,-10 1826,-30 1846,-30 1846,-10 1826,-10"/>
<text text-anchor="start" x="1849.7812" y="-15.4" font-family="sans-serif" font-size="14.00" fill="#000000"> &#160;Bootstrap</text>
<polygon fill="#fdb462" stroke="transparent" points="1923,-10 1923,-30 1943,-30 1943,-10 1923,-10"/>
<text text-anchor="start" x="1946.6732" y="-15.4" font-family="sans-serif" font-size="14.00" fill="#000000"> &#160;Providers</text>
<polygon fill="#fb8072" stroke="transparent" points="2019,-10 2019,-30 2039,-30 2039,-10 2019,-10"/>
<text text-anchor="start" x="2042.7258" y="-15.4" font-family="sans-serif" font-size="14.00" fill="#000000"> &#160;Exports</text>
<g id="clust1" class="cluster">
<title>cluster_CoreModule</title>
<polygon fill="none" stroke="#000000" stroke-dasharray="1,5" points="8,-70 8,-333 3714,-333 3714,-70 8,-70"/>
</g>
<g id="clust2" class="cluster">
<title>cluster_CoreModule_declarations</title>
<polygon fill="none" stroke="#000000" points="2464,-143 2464,-195 3706,-195 3706,-143 2464,-143"/>
</g>
<g id="clust5" class="cluster">
<title>cluster_CoreModule_ClientmenuComponent_providers</title>
<polygon fill="none" stroke="#000000" points="3229,-78 3229,-130 3373,-130 3373,-78 3229,-78"/>
</g>
<g id="clust11" class="cluster">
<title>cluster_CoreModule_imports</title>
<polygon fill="none" stroke="#000000" points="2215,-143 2215,-195 2456,-195 2456,-143 2215,-143"/>
</g>
<g id="clust12" class="cluster">
<title>cluster_CoreModule_exports</title>
<polygon fill="none" stroke="#000000" points="1811,-273 1811,-325 2765,-325 2765,-273 1811,-273"/>
</g>
<g id="clust14" class="cluster">
<title>cluster_CoreModule_providers</title>
<polygon fill="none" stroke="#000000" points="16,-143 16,-195 2207,-195 2207,-143 16,-143"/>
</g>
<!-- HeaderComponent -->
<g id="node1" class="node">
<title>HeaderComponent</title>
<polygon fill="#ffffb3" stroke="#000000" points="3697.7437,-187 3576.2563,-187 3576.2563,-151 3697.7437,-151 3697.7437,-187"/>
<text text-anchor="middle" x="3637" y="-164.8" font-family="Times,serif" font-size="14.00" fill="#000000">HeaderComponent</text>
</g>
<!-- CoreModule -->
<g id="node9" class="node">
<title>CoreModule</title>
<polygon fill="#8dd3c7" stroke="#000000" points="2314.2619,-252 2311.2619,-256 2290.2619,-256 2287.2619,-252 2227.7381,-252 2227.7381,-216 2314.2619,-216 2314.2619,-252"/>
<text text-anchor="middle" x="2271" y="-229.8" font-family="Times,serif" font-size="14.00" fill="#000000">CoreModule</text>
</g>
<!-- HeaderComponent&#45;&gt;CoreModule -->
<g id="edge1" class="edge">
<title>HeaderComponent&#45;&gt;CoreModule</title>
<path fill="none" stroke="#000000" d="M3637,-187.2921C3637,-209.2057 3637,-243 3637,-243 3637,-243 2324.5192,-243 2324.5192,-243"/>
<polygon fill="#000000" stroke="#000000" points="2324.5192,-239.5001 2314.5192,-243 2324.5192,-246.5001 2324.5192,-239.5001"/>
</g>
<!-- PageNotFoundComponent -->
<g id="node2" class="node">
<title>PageNotFoundComponent</title>
<polygon fill="#ffffb3" stroke="#000000" points="3557.8243,-187 3392.1757,-187 3392.1757,-151 3557.8243,-151 3557.8243,-187"/>
<text text-anchor="middle" x="3475" y="-164.8" font-family="Times,serif" font-size="14.00" fill="#000000">PageNotFoundComponent</text>
</g>
<!-- PageNotFoundComponent&#45;&gt;CoreModule -->
<g id="edge2" class="edge">
<title>PageNotFoundComponent&#45;&gt;CoreModule</title>
<path fill="none" stroke="#000000" d="M3475,-187.2843C3475,-208.3211 3475,-240 3475,-240 3475,-240 2324.5623,-240 2324.5623,-240"/>
<polygon fill="#000000" stroke="#000000" points="2324.5623,-236.5001 2314.5623,-240 2324.5623,-243.5001 2324.5623,-236.5001"/>
</g>
<!-- ClientmenuComponent -->
<g id="node3" class="node">
<title>ClientmenuComponent</title>
<polygon fill="#ffffb3" stroke="#000000" points="3374.161,-187 3227.839,-187 3227.839,-151 3374.161,-151 3374.161,-187"/>
<text text-anchor="middle" x="3301" y="-164.8" font-family="Times,serif" font-size="14.00" fill="#000000">ClientmenuComponent</text>
</g>
<!-- ClientmenuComponent&#45;&gt;CoreModule -->
<g id="edge3" class="edge">
<title>ClientmenuComponent&#45;&gt;CoreModule</title>
<path fill="none" stroke="#000000" d="M3301,-187.2228C3301,-207.3652 3301,-237 3301,-237 3301,-237 2324.2726,-237 2324.2726,-237"/>
<polygon fill="#000000" stroke="#000000" points="2324.2727,-233.5001 2314.2726,-237 2324.2726,-240.5001 2324.2727,-233.5001"/>
</g>
<!-- WelcomeComponent -->
<g id="node4" class="node">
<title>WelcomeComponent</title>
<polygon fill="#ffffb3" stroke="#000000" points="3209.472,-187 3074.528,-187 3074.528,-151 3209.472,-151 3209.472,-187"/>
<text text-anchor="middle" x="3142" y="-164.8" font-family="Times,serif" font-size="14.00" fill="#000000">WelcomeComponent</text>
</g>
<!-- WelcomeComponent&#45;&gt;CoreModule -->
<g id="edge5" class="edge">
<title>WelcomeComponent&#45;&gt;CoreModule</title>
<path fill="none" stroke="#000000" d="M3142,-187.1061C3142,-206.3391 3142,-234 3142,-234 3142,-234 2324.491,-234 2324.491,-234"/>
<polygon fill="#000000" stroke="#000000" points="2324.4911,-230.5001 2314.491,-234 2324.491,-237.5001 2324.4911,-230.5001"/>
</g>
<!-- AffirmationComponent -->
<g id="node5" class="node">
<title>AffirmationComponent</title>
<polygon fill="#ffffb3" stroke="#000000" points="3056.1979,-187 2907.8021,-187 2907.8021,-151 3056.1979,-151 3056.1979,-187"/>
<text text-anchor="middle" x="2982" y="-164.8" font-family="Times,serif" font-size="14.00" fill="#000000">AffirmationComponent</text>
</g>
<!-- AffirmationComponent&#45;&gt;CoreModule -->
<g id="edge6" class="edge">
<title>AffirmationComponent&#45;&gt;CoreModule</title>
<path fill="none" stroke="#000000" d="M2982,-187.2667C2982,-205.5552 2982,-231 2982,-231 2982,-231 2324.4059,-231 2324.4059,-231"/>
<polygon fill="#000000" stroke="#000000" points="2324.406,-227.5001 2314.4059,-231 2324.4059,-234.5001 2324.406,-227.5001"/>
</g>
<!-- AlertComponent -->
<g id="node6" class="node">
<title>AlertComponent</title>
<polygon fill="#ffffb3" stroke="#000000" points="2890.0954,-187 2779.9046,-187 2779.9046,-151 2890.0954,-151 2890.0954,-187"/>
<text text-anchor="middle" x="2835" y="-164.8" font-family="Times,serif" font-size="14.00" fill="#000000">AlertComponent</text>
</g>
<!-- AlertComponent&#45;&gt;CoreModule -->
<g id="edge7" class="edge">
<title>AlertComponent&#45;&gt;CoreModule</title>
<path fill="none" stroke="#000000" d="M2835,-187.0225C2835,-204.3734 2835,-228 2835,-228 2835,-228 2324.3196,-228 2324.3196,-228"/>
<polygon fill="#000000" stroke="#000000" points="2324.3197,-224.5001 2314.3196,-228 2324.3196,-231.5001 2324.3197,-224.5001"/>
</g>
<!-- AlertElementComponent -->
<g id="node7" class="node">
<title>AlertElementComponent</title>
<polygon fill="#ffffb3" stroke="#000000" points="2762.2492,-187 2605.7508,-187 2605.7508,-151 2762.2492,-151 2762.2492,-187"/>
<text text-anchor="middle" x="2684" y="-164.8" font-family="Times,serif" font-size="14.00" fill="#000000">AlertElementComponent</text>
</g>
<!-- AlertElementComponent&#45;&gt;CoreModule -->
<g id="edge8" class="edge">
<title>AlertElementComponent&#45;&gt;CoreModule</title>
<path fill="none" stroke="#000000" d="M2609.5188,-187.027C2609.5188,-203.3976 2609.5188,-225 2609.5188,-225 2609.5188,-225 2324.5624,-225 2324.5624,-225"/>
<polygon fill="#000000" stroke="#000000" points="2324.5624,-221.5001 2314.5624,-225 2324.5624,-228.5001 2324.5624,-221.5001"/>
</g>
<!-- ClientComponent -->
<g id="node8" class="node">
<title>ClientComponent</title>
<polygon fill="#ffffb3" stroke="#000000" points="2587.5563,-187 2472.4437,-187 2472.4437,-151 2587.5563,-151 2587.5563,-187"/>
<text text-anchor="middle" x="2530" y="-164.8" font-family="Times,serif" font-size="14.00" fill="#000000">ClientComponent</text>
</g>
<!-- ClientComponent&#45;&gt;CoreModule -->
<g id="edge9" class="edge">
<title>ClientComponent&#45;&gt;CoreModule</title>
<path fill="none" stroke="#000000" d="M2530,-187.2396C2530,-202.5706 2530,-222 2530,-222 2530,-222 2324.3508,-222 2324.3508,-222"/>
<polygon fill="#000000" stroke="#000000" points="2324.3508,-218.5001 2314.3508,-222 2324.3507,-225.5001 2324.3508,-218.5001"/>
</g>
<!-- HeaderComponent  -->
<g id="node13" class="node">
<title>HeaderComponent </title>
<polygon fill="#fb8072" stroke="#000000" points="2756.7436,-317 2631.2564,-317 2631.2564,-281 2756.7436,-281 2756.7436,-317"/>
<text text-anchor="middle" x="2694" y="-294.8" font-family="Times,serif" font-size="14.00" fill="#000000">HeaderComponent </text>
</g>
<!-- CoreModule&#45;&gt;HeaderComponent  -->
<g id="edge12" class="edge">
<title>CoreModule&#45;&gt;HeaderComponent </title>
<path fill="none" stroke="#000000" stroke-dasharray="5,2" d="M2314.2805,-246C2422.089,-246 2694,-246 2694,-246 2694,-246 2694,-270.7604 2694,-270.7604"/>
<polygon fill="#000000" stroke="#000000" points="2690.5001,-270.7604 2694,-280.7604 2697.5001,-270.7604 2690.5001,-270.7604"/>
</g>
<!-- PageNotFoundComponent  -->
<g id="node14" class="node">
<title>PageNotFoundComponent </title>
<polygon fill="#fb8072" stroke="#000000" points="2613.3241,-317 2444.6759,-317 2444.6759,-281 2613.3241,-281 2613.3241,-317"/>
<text text-anchor="middle" x="2529" y="-294.8" font-family="Times,serif" font-size="14.00" fill="#000000">PageNotFoundComponent </text>
</g>
<!-- CoreModule&#45;&gt;PageNotFoundComponent  -->
<g id="edge13" class="edge">
<title>CoreModule&#45;&gt;PageNotFoundComponent </title>
<path fill="none" stroke="#000000" stroke-dasharray="5,2" d="M2314.3669,-249C2370.1744,-249 2460.0281,-249 2460.0281,-249 2460.0281,-249 2460.0281,-270.9489 2460.0281,-270.9489"/>
<polygon fill="#000000" stroke="#000000" points="2456.5281,-270.9488 2460.0281,-280.9489 2463.5281,-270.9489 2456.5281,-270.9488"/>
</g>
<!-- ClientmenuComponent  -->
<g id="node15" class="node">
<title>ClientmenuComponent </title>
<polygon fill="#fb8072" stroke="#000000" points="2427.1607,-317 2276.8393,-317 2276.8393,-281 2427.1607,-281 2427.1607,-317"/>
<text text-anchor="middle" x="2352" y="-294.8" font-family="Times,serif" font-size="14.00" fill="#000000">ClientmenuComponent </text>
</g>
<!-- CoreModule&#45;&gt;ClientmenuComponent  -->
<g id="edge14" class="edge">
<title>CoreModule&#45;&gt;ClientmenuComponent </title>
<path fill="none" stroke="#000000" stroke-dasharray="5,2" d="M2295.6502,-252.1061C2295.6502,-252.1061 2295.6502,-270.991 2295.6502,-270.991"/>
<polygon fill="#000000" stroke="#000000" points="2292.1503,-270.9909 2295.6502,-280.991 2299.1503,-270.991 2292.1503,-270.9909"/>
</g>
<!-- WelcomeComponent  -->
<g id="node16" class="node">
<title>WelcomeComponent </title>
<polygon fill="#fb8072" stroke="#000000" points="2259.4728,-317 2120.5272,-317 2120.5272,-281 2259.4728,-281 2259.4728,-317"/>
<text text-anchor="middle" x="2190" y="-294.8" font-family="Times,serif" font-size="14.00" fill="#000000">WelcomeComponent </text>
</g>
<!-- CoreModule&#45;&gt;WelcomeComponent  -->
<g id="edge15" class="edge">
<title>CoreModule&#45;&gt;WelcomeComponent </title>
<path fill="none" stroke="#000000" stroke-dasharray="5,2" d="M2243.4276,-252.1061C2243.4276,-252.1061 2243.4276,-270.991 2243.4276,-270.991"/>
<polygon fill="#000000" stroke="#000000" points="2239.9277,-270.9909 2243.4276,-280.991 2246.9277,-270.991 2239.9277,-270.9909"/>
</g>
<!-- AffirmationComponent  -->
<g id="node17" class="node">
<title>AffirmationComponent </title>
<polygon fill="#fb8072" stroke="#000000" points="2102.6981,-317 1951.3019,-317 1951.3019,-281 2102.6981,-281 2102.6981,-317"/>
<text text-anchor="middle" x="2027" y="-294.8" font-family="Times,serif" font-size="14.00" fill="#000000">AffirmationComponent </text>
</g>
<!-- CoreModule&#45;&gt;AffirmationComponent  -->
<g id="edge16" class="edge">
<title>CoreModule&#45;&gt;AffirmationComponent </title>
<path fill="none" stroke="#000000" stroke-dasharray="5,2" d="M2227.4631,-249C2175.8327,-249 2096.6868,-249 2096.6868,-249 2096.6868,-249 2096.6868,-270.9489 2096.6868,-270.9489"/>
<polygon fill="#000000" stroke="#000000" points="2093.1869,-270.9488 2096.6868,-280.9489 2100.1869,-270.9489 2093.1869,-270.9488"/>
</g>
<!-- AlertComponent  -->
<g id="node18" class="node">
<title>AlertComponent </title>
<polygon fill="#fb8072" stroke="#000000" points="1932.5961,-317 1819.4039,-317 1819.4039,-281 1932.5961,-281 1932.5961,-317"/>
<text text-anchor="middle" x="1876" y="-294.8" font-family="Times,serif" font-size="14.00" fill="#000000">AlertComponent </text>
</g>
<!-- CoreModule&#45;&gt;AlertComponent  -->
<g id="edge17" class="edge">
<title>CoreModule&#45;&gt;AlertComponent </title>
<path fill="none" stroke="#000000" stroke-dasharray="5,2" d="M2227.528,-246C2125.4109,-246 1878.7887,-246 1878.7887,-246 1878.7887,-246 1878.7887,-270.7604 1878.7887,-270.7604"/>
<polygon fill="#000000" stroke="#000000" points="1875.2888,-270.7604 1878.7887,-280.7604 1882.2888,-270.7604 1875.2888,-270.7604"/>
</g>
<!-- ClientService -->
<g id="node10" class="node">
<title>ClientService</title>
<ellipse fill="#fdb462" stroke="#000000" cx="3301" cy="-104" rx="63.6967" ry="18"/>
<text text-anchor="middle" x="3301" y="-99.8" font-family="Times,serif" font-size="14.00" fill="#000000">ClientService</text>
</g>
<!-- ClientService&#45;&gt;ClientmenuComponent -->
<g id="edge4" class="edge">
<title>ClientService&#45;&gt;ClientmenuComponent</title>
<path fill="none" stroke="#000000" d="M3301,-122.1061C3301,-122.1061 3301,-140.991 3301,-140.991"/>
<polygon fill="#000000" stroke="#000000" points="3297.5001,-140.9909 3301,-150.991 3304.5001,-140.991 3297.5001,-140.9909"/>
</g>
<!-- CommonModule -->
<g id="node11" class="node">
<title>CommonModule</title>
<polygon fill="#8dd3c7" stroke="#000000" points="2447.6681,-187 2444.6681,-191 2423.6681,-191 2420.6681,-187 2336.3319,-187 2336.3319,-151 2447.6681,-151 2447.6681,-187"/>
<text text-anchor="middle" x="2392" y="-164.8" font-family="Times,serif" font-size="14.00" fill="#000000">CommonModule</text>
</g>
<!-- CommonModule&#45;&gt;CoreModule -->
<g id="edge10" class="edge">
<title>CommonModule&#45;&gt;CoreModule</title>
<path fill="none" stroke="#000000" d="M2381.6233,-187.0511C2381.6233,-201.373 2381.6233,-219 2381.6233,-219 2381.6233,-219 2324.4037,-219 2324.4037,-219"/>
<polygon fill="#000000" stroke="#000000" points="2324.4038,-215.5001 2314.4037,-219 2324.4037,-222.5001 2324.4038,-215.5001"/>
</g>
<!-- FormsModule -->
<g id="node12" class="node">
<title>FormsModule</title>
<polygon fill="#8dd3c7" stroke="#000000" points="2318.8288,-187 2315.8288,-191 2294.8288,-191 2291.8288,-187 2223.1712,-187 2223.1712,-151 2318.8288,-151 2318.8288,-187"/>
<text text-anchor="middle" x="2271" y="-164.8" font-family="Times,serif" font-size="14.00" fill="#000000">FormsModule</text>
</g>
<!-- FormsModule&#45;&gt;CoreModule -->
<g id="edge11" class="edge">
<title>FormsModule&#45;&gt;CoreModule</title>
<path fill="none" stroke="#000000" d="M2271,-187.1061C2271,-187.1061 2271,-205.991 2271,-205.991"/>
<polygon fill="#000000" stroke="#000000" points="2267.5001,-205.9909 2271,-215.991 2274.5001,-205.991 2267.5001,-205.9909"/>
</g>
<!-- ApiService -->
<g id="node19" class="node">
<title>ApiService</title>
<ellipse fill="#fdb462" stroke="#000000" cx="2145" cy="-169" rx="54.4508" ry="18"/>
<text text-anchor="middle" x="2145" y="-164.8" font-family="Times,serif" font-size="14.00" fill="#000000">ApiService</text>
</g>
<!-- ApiService&#45;&gt;CoreModule -->
<g id="edge18" class="edge">
<title>ApiService&#45;&gt;CoreModule</title>
<path fill="none" stroke="#000000" d="M2160.1197,-186.4876C2160.1197,-200.9061 2160.1197,-219 2160.1197,-219 2160.1197,-219 2217.4954,-219 2217.4954,-219"/>
<polygon fill="#000000" stroke="#000000" points="2217.4954,-222.5001 2227.4954,-219 2217.4954,-215.5001 2217.4954,-222.5001"/>
</g>
<!-- TestService -->
<g id="node20" class="node">
<title>TestService</title>
<ellipse fill="#fdb462" stroke="#000000" cx="2016" cy="-169" rx="56.7348" ry="18"/>
<text text-anchor="middle" x="2016" y="-164.8" font-family="Times,serif" font-size="14.00" fill="#000000">TestService</text>
</g>
<!-- TestService&#45;&gt;CoreModule -->
<g id="edge19" class="edge">
<title>TestService&#45;&gt;CoreModule</title>
<path fill="none" stroke="#000000" d="M2016,-187.2396C2016,-202.5706 2016,-222 2016,-222 2016,-222 2217.4537,-222 2217.4537,-222"/>
<polygon fill="#000000" stroke="#000000" points="2217.4537,-225.5001 2227.4537,-222 2217.4536,-218.5001 2217.4537,-225.5001"/>
</g>
<!-- UserService -->
<g id="node21" class="node">
<title>UserService</title>
<ellipse fill="#fdb462" stroke="#000000" cx="1883" cy="-169" rx="58.4415" ry="18"/>
<text text-anchor="middle" x="1883" y="-164.8" font-family="Times,serif" font-size="14.00" fill="#000000">UserService</text>
</g>
<!-- UserService&#45;&gt;CoreModule -->
<g id="edge20" class="edge">
<title>UserService&#45;&gt;CoreModule</title>
<path fill="none" stroke="#000000" d="M1937.009,-175.8667C1937.009,-190.8203 1937.009,-225 1937.009,-225 1937.009,-225 2217.6789,-225 2217.6789,-225"/>
<polygon fill="#000000" stroke="#000000" points="2217.6789,-228.5001 2227.6789,-225 2217.6789,-221.5001 2217.6789,-228.5001"/>
</g>
<!-- LoggerService -->
<g id="node22" class="node">
<title>LoggerService</title>
<ellipse fill="#fdb462" stroke="#000000" cx="1739" cy="-169" rx="67.7567" ry="18"/>
<text text-anchor="middle" x="1739" y="-164.8" font-family="Times,serif" font-size="14.00" fill="#000000">LoggerService</text>
</g>
<!-- LoggerService&#45;&gt;CoreModule -->
<g id="edge21" class="edge">
<title>LoggerService&#45;&gt;CoreModule</title>
<path fill="none" stroke="#000000" d="M1739,-187.0225C1739,-204.3734 1739,-228 1739,-228 1739,-228 2217.4642,-228 2217.4642,-228"/>
<polygon fill="#000000" stroke="#000000" points="2217.4642,-231.5001 2227.4642,-228 2217.4642,-224.5001 2217.4642,-231.5001"/>
</g>
<!-- AppStorage -->
<g id="node23" class="node">
<title>AppStorage</title>
<ellipse fill="#fdb462" stroke="#000000" cx="1596" cy="-169" rx="57.3243" ry="18"/>
<text text-anchor="middle" x="1596" y="-164.8" font-family="Times,serif" font-size="14.00" fill="#000000">AppStorage</text>
</g>
<!-- AppStorage&#45;&gt;CoreModule -->
<g id="edge22" class="edge">
<title>AppStorage&#45;&gt;CoreModule</title>
<path fill="none" stroke="#000000" d="M1596,-187.2667C1596,-205.5552 1596,-231 1596,-231 1596,-231 2217.4905,-231 2217.4905,-231"/>
<polygon fill="#000000" stroke="#000000" points="2217.4905,-234.5001 2227.4905,-231 2217.4905,-227.5001 2217.4905,-234.5001"/>
</g>
<!-- AffirmationProviderService -->
<g id="node24" class="node">
<title>AffirmationProviderService</title>
<ellipse fill="#fdb462" stroke="#000000" cx="1401" cy="-169" rx="119.2364" ry="18"/>
<text text-anchor="middle" x="1401" y="-164.8" font-family="Times,serif" font-size="14.00" fill="#000000">AffirmationProviderService</text>
</g>
<!-- AffirmationProviderService&#45;&gt;CoreModule -->
<g id="edge23" class="edge">
<title>AffirmationProviderService&#45;&gt;CoreModule</title>
<path fill="none" stroke="#000000" d="M1401,-187.1061C1401,-206.3391 1401,-234 1401,-234 1401,-234 2217.5589,-234 2217.5589,-234"/>
<polygon fill="#000000" stroke="#000000" points="2217.5589,-237.5001 2227.5589,-234 2217.5589,-230.5001 2217.5589,-237.5001"/>
</g>
<!-- AlertProviderService -->
<g id="node25" class="node">
<title>AlertProviderService</title>
<ellipse fill="#fdb462" stroke="#000000" cx="1171" cy="-169" rx="93.1716" ry="18"/>
<text text-anchor="middle" x="1171" y="-164.8" font-family="Times,serif" font-size="14.00" fill="#000000">AlertProviderService</text>
</g>
<!-- AlertProviderService&#45;&gt;CoreModule -->
<g id="edge24" class="edge">
<title>AlertProviderService&#45;&gt;CoreModule</title>
<path fill="none" stroke="#000000" d="M1171,-187.2228C1171,-207.3652 1171,-237 1171,-237 1171,-237 2217.5399,-237 2217.5399,-237"/>
<polygon fill="#000000" stroke="#000000" points="2217.5399,-240.5001 2227.5399,-237 2217.5399,-233.5001 2217.5399,-240.5001"/>
</g>
<!-- AppConfig -->
<g id="node26" class="node">
<title>AppConfig</title>
<ellipse fill="#fdb462" stroke="#000000" cx="1005" cy="-169" rx="54.4778" ry="18"/>
<text text-anchor="middle" x="1005" y="-164.8" font-family="Times,serif" font-size="14.00" fill="#000000">AppConfig</text>
</g>
<!-- AppConfig&#45;&gt;CoreModule -->
<g id="edge25" class="edge">
<title>AppConfig&#45;&gt;CoreModule</title>
<path fill="none" stroke="#000000" d="M1005,-187.2843C1005,-208.3211 1005,-240 1005,-240 1005,-240 2217.4214,-240 2217.4214,-240"/>
<polygon fill="#000000" stroke="#000000" points="2217.4214,-243.5001 2227.4214,-240 2217.4214,-236.5001 2217.4214,-243.5001"/>
</g>
<!-- { provide: APP_INITIALIZER, useFactory: initFactory, deps: [AppConfig, LoggerService, AppStorage], multi: &#160;} -->
<g id="node27" class="node">
<title>{ provide: APP_INITIALIZER, useFactory: initFactory, deps: [AppConfig, LoggerService, AppStorage], multi: &#160;}</title>
<ellipse fill="#fdb462" stroke="#000000" cx="478" cy="-169" rx="454.4551" ry="18"/>
<text text-anchor="middle" x="478" y="-164.8" font-family="Times,serif" font-size="14.00" fill="#000000">{ provide: APP_INITIALIZER, useFactory: initFactory, deps: [AppConfig, LoggerService, AppStorage], multi: &#160;}</text>
</g>
<!-- { provide: APP_INITIALIZER, useFactory: initFactory, deps: [AppConfig, LoggerService, AppStorage], multi: &#160;}&#45;&gt;CoreModule -->
<g id="edge26" class="edge">
<title>{ provide: APP_INITIALIZER, useFactory: initFactory, deps: [AppConfig, LoggerService, AppStorage], multi: &#160;}&#45;&gt;CoreModule</title>
<path fill="none" stroke="#000000" d="M478,-187.2921C478,-209.2057 478,-243 478,-243 478,-243 2217.5668,-243 2217.5668,-243"/>
<polygon fill="#000000" stroke="#000000" points="2217.5669,-246.5001 2227.5668,-243 2217.5668,-239.5001 2217.5669,-246.5001"/>
</g>
</g>
</svg>
